<svg width="24" height="24" viewBox="0 0 24 24" fill="none" xmlns="http://www.w3.org/2000/svg">
<path d="M12.0002 23.5C12.7084 23.4987 13.3935 23.2471 13.9342 22.7896C14.4749 22.3321 14.8365 21.6983 14.9552 21H9.04517C9.1638 21.6983 9.52543 22.3321 10.0662 22.7896C10.6069 23.2471 11.2919 23.4987 12.0002 23.5Z" fill="#47CFFF"/>
<path d="M21.907 19.2095C21.883 19.176 19.5 15.8 19.5 13V8C19.5 6.01088 18.7099 4.10322 17.3033 2.6967C15.8968 1.29018 13.9892 0.5 12 0.5C10.0109 0.5 8.10327 1.29018 6.69675 2.6967C5.29023 4.10322 4.50005 6.01088 4.50005 8V13C4.50005 15.8 2.11705 19.176 2.09305 19.2095C2.03968 19.2843 2.00794 19.3723 2.0013 19.4639C1.99467 19.5555 2.01341 19.6472 2.05546 19.7289C2.09751 19.8105 2.16125 19.8791 2.23967 19.9269C2.3181 19.9747 2.40819 20 2.50005 20H21.5C21.5919 20 21.682 19.9747 21.7604 19.9269C21.8389 19.8791 21.9026 19.8105 21.9446 19.7289C21.9867 19.6472 22.0054 19.5555 21.9988 19.4639C21.9922 19.3723 21.9604 19.2843 21.907 19.2095Z" fill="#47CFFF"/>
</svg>
