<svg width="24" height="24" viewBox="0 0 24 24" fill="none" xmlns="http://www.w3.org/2000/svg">
<path d="M15.4924 12.9536C14.4592 13.5375 13.269 13.875 12 13.875C10.731 13.875 9.54075 13.5375 8.50763 12.9536C4.2195 14.412 1.125 18.4751 1.125 23.25C1.125 23.457 1.293 23.625 1.5 23.625H22.5C22.707 23.625 22.875 23.457 22.875 23.25C22.875 18.4751 19.7805 14.412 15.4924 12.9536Z" fill="#47CFFF"/>
<path d="M12 0.375C8.48475 0.375 5.625 3.23475 5.625 6.75C5.625 10.2653 8.48475 13.125 12 13.125C15.5153 13.125 18.375 10.2653 18.375 6.75C18.375 3.23475 15.5153 0.375 12 0.375Z" fill="#47CFFF"/>
</svg>
