<svg width="18" height="18" viewBox="0 0 18 18" fill="none" xmlns="http://www.w3.org/2000/svg">
<g opacity="0.5">
<path d="M3.09375 3.09375H14.9062" stroke="white" stroke-miterlimit="10"/>
<path d="M3.09375 14.3438H14.9062" stroke="white" stroke-miterlimit="10"/>
<path d="M13.5 17.4375H4.5C4.12704 17.4375 3.76935 17.2893 3.50563 17.0256C3.24191 16.7619 3.09375 16.4042 3.09375 16.0312V1.96875C3.09375 1.59579 3.24191 1.2381 3.50563 0.974381C3.76935 0.710658 4.12704 0.5625 4.5 0.5625H13.5C13.873 0.5625 14.2306 0.710658 14.4944 0.974381C14.7581 1.2381 14.9062 1.59579 14.9062 1.96875V16.0312C14.9063 16.4042 14.7581 16.7619 14.4944 17.0256C14.2306 17.2893 13.873 17.4375 13.5 17.4375V17.4375Z" stroke="white" stroke-miterlimit="10" stroke-linecap="square"/>
</g>
</svg>
