<svg width="20" height="20" viewBox="0 0 20 20" fill="none" xmlns="http://www.w3.org/2000/svg">
<g opacity="0.3">
<path d="M10.0001 15.3126C9.99798 14.5029 10.193 13.7049 10.5684 12.9875C10.9437 12.2701 11.4881 11.6549 12.1545 11.195C12.8209 10.7352 13.5892 10.4445 14.3931 10.348C15.197 10.2516 16.0123 10.3524 16.7686 10.6417L19.2761 8.19728C19.3203 8.15439 19.3516 8.09996 19.3664 8.04017C19.3812 7.98038 19.379 7.91763 19.36 7.85905C19.3409 7.80046 19.3058 7.74839 19.2587 7.70875C19.2115 7.6691 19.1542 7.64348 19.0932 7.63478L13.0139 6.7529L10.2951 1.24384C10.2646 1.19283 10.2214 1.15061 10.1697 1.12129C10.118 1.09197 10.0596 1.07655 10.0001 1.07655C9.94068 1.07655 9.88226 1.09197 9.83055 1.12129C9.77885 1.15061 9.73563 1.19283 9.70512 1.24384L6.98637 6.7529L0.906365 7.63603C0.845274 7.64455 0.787814 7.67009 0.740551 7.70973C0.693288 7.74936 0.658129 7.8015 0.639093 7.86017C0.620058 7.91884 0.617912 7.98169 0.632903 8.04152C0.647894 8.10135 0.679415 8.15576 0.723865 8.19853L5.12512 12.4851L4.08512 18.5401C4.0748 18.6006 4.08162 18.6628 4.10478 18.7196C4.12795 18.7764 4.16655 18.8256 4.21621 18.8617C4.26588 18.8977 4.32464 18.9192 4.38585 18.9236C4.44707 18.928 4.50829 18.9152 4.56262 18.8867L10.0001 16.0282L10.0626 16.061C10.0231 15.8135 10.0022 15.5633 10.0001 15.3126Z" fill="white"/>
<path d="M15 11.25C14.1965 11.25 13.4111 11.4883 12.743 11.9347C12.0749 12.381 11.5542 13.0155 11.2467 13.7578C10.9393 14.5002 10.8588 15.317 11.0156 16.1051C11.1723 16.8931 11.5592 17.617 12.1274 18.1851C12.6955 18.7533 13.4194 19.1402 14.2074 19.2969C14.9955 19.4537 15.8123 19.3732 16.5547 19.0658C17.297 18.7583 17.9315 18.2376 18.3778 17.5695C18.8242 16.9014 19.0625 16.116 19.0625 15.3125C19.0625 14.779 18.9574 14.2507 18.7533 13.7578C18.5491 13.265 18.2499 12.8171 17.8726 12.4399C17.4954 12.0626 17.0475 11.7634 16.5547 11.5592C16.0618 11.3551 15.5335 11.25 15 11.25ZM16.875 17.1875H13.125C13.0421 17.1875 12.9626 17.1546 12.904 17.096C12.8454 17.0374 12.8125 16.9579 12.8125 16.875C12.8125 16.7921 12.8454 16.7126 12.904 16.654C12.9626 16.5954 13.0421 16.5625 13.125 16.5625H16.875C16.9579 16.5625 17.0374 16.5954 17.096 16.654C17.1546 16.7126 17.1875 16.7921 17.1875 16.875C17.1875 16.9579 17.1546 17.0374 17.096 17.096C17.0374 17.1546 16.9579 17.1875 16.875 17.1875ZM16.875 15.625H13.125C13.0421 15.625 12.9626 15.5921 12.904 15.5335C12.8454 15.4749 12.8125 15.3954 12.8125 15.3125C12.8125 15.2296 12.8454 15.1501 12.904 15.0915C12.9626 15.0329 13.0421 15 13.125 15H16.875C16.9579 15 17.0374 15.0329 17.096 15.0915C17.1546 15.1501 17.1875 15.2296 17.1875 15.3125C17.1875 15.3954 17.1546 15.4749 17.096 15.5335C17.0374 15.5921 16.9579 15.625 16.875 15.625ZM16.875 14.0625H13.125C13.0421 14.0625 12.9626 14.0296 12.904 13.971C12.8454 13.9124 12.8125 13.8329 12.8125 13.75C12.8125 13.6671 12.8454 13.5876 12.904 13.529C12.9626 13.4704 13.0421 13.4375 13.125 13.4375H16.875C16.9579 13.4375 17.0374 13.4704 17.096 13.529C17.1546 13.5876 17.1875 13.6671 17.1875 13.75C17.1875 13.8329 17.1546 13.9124 17.096 13.971C17.0374 14.0296 16.9579 14.0625 16.875 14.0625Z" fill="white"/>
</g>
</svg>
