<svg width="20" height="22" viewBox="0 0 20 22" fill="none" xmlns="http://www.w3.org/2000/svg">
<path d="M13.2013 11.8741C12.2543 12.4094 11.1632 12.7187 10 12.7187C8.83675 12.7187 7.74569 12.4094 6.79866 11.8741C2.86787 13.211 0.03125 16.9355 0.03125 21.3125C0.03125 21.5022 0.18525 21.6562 0.375 21.6562H19.625C19.8148 21.6562 19.9688 21.5022 19.9688 21.3125C19.9688 16.9355 17.1321 13.211 13.2013 11.8741Z" fill="white"/>
<path d="M10 0.34375C6.77769 0.34375 4.15625 2.96519 4.15625 6.1875C4.15625 9.40981 6.77769 12.0312 10 12.0312C13.2223 12.0312 15.8438 9.40981 15.8438 6.1875C15.8438 2.96519 13.2223 0.34375 10 0.34375Z" fill="white"/>
</svg>
